<svg xmlns="http://www.w3.org/2000/svg" xmlns:xlink="http://www.w3.org/1999/xlink" xmlns:s="https://github.com/nturley/netlistsvg" width="392" height="469">
  <style>svg {
    stroke:#000;
    fill:none;
  }
  text {
    fill:#000;
    stroke:none;
    font-size:10px;
    font-weight: bold;
    font-family: "Courier New", monospace;
  }
  .nodelabel {
    text-anchor: middle;
  }
  .inputPortLabel {
    text-anchor: end;
  }
  .splitjoinBody {
    fill:#000;
  }</style>
  <g s:type="and" transform="translate(169,372)" s:width="30" s:height="25" id="cell_$auto$simplemap.cc:83:simplemap_bitop$163">
    <s:alias val="$and"/>
    <s:alias val="$logic_and"/>
    <s:alias val="$_AND_"/>
    <path d="M0,0 L0,25 L15,25 A15 12.5 0 0 0 15,0 Z" class="cell_$auto$simplemap.cc:83:simplemap_bitop$163"/>
    <g s:x="0" s:y="5" s:pid="A"/>
    <g s:x="0" s:y="20" s:pid="B"/>
    <g s:x="30" s:y="12.5" s:pid="Y"/>
  </g>
  <g s:type="and" transform="translate(169,252)" s:width="30" s:height="25" id="cell_$auto$simplemap.cc:83:simplemap_bitop$164">
    <s:alias val="$and"/>
    <s:alias val="$logic_and"/>
    <s:alias val="$_AND_"/>
    <path d="M0,0 L0,25 L15,25 A15 12.5 0 0 0 15,0 Z" class="cell_$auto$simplemap.cc:83:simplemap_bitop$164"/>
    <g s:x="0" s:y="5" s:pid="A"/>
    <g s:x="0" s:y="20" s:pid="B"/>
    <g s:x="30" s:y="12.5" s:pid="Y"/>
  </g>
  <g s:type="and" transform="translate(169,312)" s:width="30" s:height="25" id="cell_$auto$simplemap.cc:83:simplemap_bitop$165">
    <s:alias val="$and"/>
    <s:alias val="$logic_and"/>
    <s:alias val="$_AND_"/>
    <path d="M0,0 L0,25 L15,25 A15 12.5 0 0 0 15,0 Z" class="cell_$auto$simplemap.cc:83:simplemap_bitop$165"/>
    <g s:x="0" s:y="5" s:pid="A"/>
    <g s:x="0" s:y="20" s:pid="B"/>
    <g s:x="30" s:y="12.5" s:pid="Y"/>
  </g>
  <g s:type="and" transform="translate(169,132)" s:width="30" s:height="25" id="cell_$auto$simplemap.cc:83:simplemap_bitop$166">
    <s:alias val="$and"/>
    <s:alias val="$logic_and"/>
    <s:alias val="$_AND_"/>
    <path d="M0,0 L0,25 L15,25 A15 12.5 0 0 0 15,0 Z" class="cell_$auto$simplemap.cc:83:simplemap_bitop$166"/>
    <g s:x="0" s:y="5" s:pid="A"/>
    <g s:x="0" s:y="20" s:pid="B"/>
    <g s:x="30" s:y="12.5" s:pid="Y"/>
  </g>
  <g s:type="and" transform="translate(169,192)" s:width="30" s:height="25" id="cell_$auto$simplemap.cc:83:simplemap_bitop$167">
    <s:alias val="$and"/>
    <s:alias val="$logic_and"/>
    <s:alias val="$_AND_"/>
    <path d="M0,0 L0,25 L15,25 A15 12.5 0 0 0 15,0 Z" class="cell_$auto$simplemap.cc:83:simplemap_bitop$167"/>
    <g s:x="0" s:y="5" s:pid="A"/>
    <g s:x="0" s:y="20" s:pid="B"/>
    <g s:x="30" s:y="12.5" s:pid="Y"/>
  </g>
  <g s:type="and" transform="translate(169,12)" s:width="30" s:height="25" id="cell_$auto$simplemap.cc:83:simplemap_bitop$168">
    <s:alias val="$and"/>
    <s:alias val="$logic_and"/>
    <s:alias val="$_AND_"/>
    <path d="M0,0 L0,25 L15,25 A15 12.5 0 0 0 15,0 Z" class="cell_$auto$simplemap.cc:83:simplemap_bitop$168"/>
    <g s:x="0" s:y="5" s:pid="A"/>
    <g s:x="0" s:y="20" s:pid="B"/>
    <g s:x="30" s:y="12.5" s:pid="Y"/>
  </g>
  <g s:type="and" transform="translate(169,72)" s:width="30" s:height="25" id="cell_$auto$simplemap.cc:83:simplemap_bitop$169">
    <s:alias val="$and"/>
    <s:alias val="$logic_and"/>
    <s:alias val="$_AND_"/>
    <path d="M0,0 L0,25 L15,25 A15 12.5 0 0 0 15,0 Z" class="cell_$auto$simplemap.cc:83:simplemap_bitop$169"/>
    <g s:x="0" s:y="5" s:pid="A"/>
    <g s:x="0" s:y="20" s:pid="B"/>
    <g s:x="30" s:y="12.5" s:pid="Y"/>
  </g>
  <g s:type="reduce_xor" transform="translate(234,364.5)" s:width="33" s:height="25" id="cell_$auto$simplemap.cc:83:simplemap_bitop$172">
    <s:alias val="$xor"/>
    <s:alias val="$reduce_xor"/>
    <s:alias val="$_XOR_"/>
    <path d="M3,0 A30 25 0 0 1 3,25 A30 25 0 0 0 33,12.5 A30 25 0 0 0 3,0" class="cell_$auto$simplemap.cc:83:simplemap_bitop$172"/>
    <path d="M0,0 A30 25 0 0 1 0,25" class="cell_$auto$simplemap.cc:83:simplemap_bitop$172"/>
    <g s:x="3" s:y="5" s:pid="A"/>
    <g s:x="3" s:y="20" s:pid="B"/>
    <g s:x="33" s:y="12.5" s:pid="Y"/>
  </g>
  <g s:type="reduce_xor" transform="translate(234,259.5)" s:width="33" s:height="25" id="cell_$auto$simplemap.cc:83:simplemap_bitop$181">
    <s:alias val="$xor"/>
    <s:alias val="$reduce_xor"/>
    <s:alias val="$_XOR_"/>
    <path d="M3,0 A30 25 0 0 1 3,25 A30 25 0 0 0 33,12.5 A30 25 0 0 0 3,0" class="cell_$auto$simplemap.cc:83:simplemap_bitop$181"/>
    <path d="M0,0 A30 25 0 0 1 0,25" class="cell_$auto$simplemap.cc:83:simplemap_bitop$181"/>
    <g s:x="3" s:y="5" s:pid="A"/>
    <g s:x="3" s:y="20" s:pid="B"/>
    <g s:x="33" s:y="12.5" s:pid="Y"/>
  </g>
  <g s:type="reduce_xor" transform="translate(234,139.5)" s:width="33" s:height="25" id="cell_$auto$simplemap.cc:83:simplemap_bitop$187">
    <s:alias val="$xor"/>
    <s:alias val="$reduce_xor"/>
    <s:alias val="$_XOR_"/>
    <path d="M3,0 A30 25 0 0 1 3,25 A30 25 0 0 0 33,12.5 A30 25 0 0 0 3,0" class="cell_$auto$simplemap.cc:83:simplemap_bitop$187"/>
    <path d="M0,0 A30 25 0 0 1 0,25" class="cell_$auto$simplemap.cc:83:simplemap_bitop$187"/>
    <g s:x="3" s:y="5" s:pid="A"/>
    <g s:x="3" s:y="20" s:pid="B"/>
    <g s:x="33" s:y="12.5" s:pid="Y"/>
  </g>
  <g s:type="and" transform="translate(169,432)" s:width="30" s:height="25" id="cell_$auto$simplemap.cc:83:simplemap_bitop$191">
    <s:alias val="$and"/>
    <s:alias val="$logic_and"/>
    <s:alias val="$_AND_"/>
    <path d="M0,0 L0,25 L15,25 A15 12.5 0 0 0 15,0 Z" class="cell_$auto$simplemap.cc:83:simplemap_bitop$191"/>
    <g s:x="0" s:y="5" s:pid="A"/>
    <g s:x="0" s:y="20" s:pid="B"/>
    <g s:x="30" s:y="12.5" s:pid="Y"/>
  </g>
  <g s:type="reduce_xor" transform="translate(234,19.5)" s:width="33" s:height="25" id="cell_$auto$simplemap.cc:83:simplemap_bitop$194">
    <s:alias val="$xor"/>
    <s:alias val="$reduce_xor"/>
    <s:alias val="$_XOR_"/>
    <path d="M3,0 A30 25 0 0 1 3,25 A30 25 0 0 0 33,12.5 A30 25 0 0 0 3,0" class="cell_$auto$simplemap.cc:83:simplemap_bitop$194"/>
    <path d="M0,0 A30 25 0 0 1 0,25" class="cell_$auto$simplemap.cc:83:simplemap_bitop$194"/>
    <g s:x="3" s:y="5" s:pid="A"/>
    <g s:x="3" s:y="20" s:pid="B"/>
    <g s:x="33" s:y="12.5" s:pid="Y"/>
  </g>
  <g s:type="inputExt" transform="translate(12,137)" s:width="30" s:height="20" id="cell_A">
    <text x="15" y="-4" class="nodelabel cell_A" s:attribute="ref">A</text>
    <s:alias val="$_inputExt_"/>
    <path d="M0,0 L0,20 L15,20 L30,10 L15,0 Z" class="cell_A"/>
    <g s:x="28" s:y="10" s:pid="Y"/>
  </g>
  <g s:type="inputExt" transform="translate(12,252)" s:width="30" s:height="20" id="cell_B">
    <text x="15" y="-4" class="nodelabel cell_B" s:attribute="ref">B</text>
    <s:alias val="$_inputExt_"/>
    <path d="M0,0 L0,20 L15,20 L30,10 L15,0 Z" class="cell_B"/>
    <g s:x="28" s:y="10" s:pid="Y"/>
  </g>
  <g s:type="outputExt" transform="translate(350,32)" s:width="30" s:height="20" id="cell_C">
    <text x="15" y="-4" class="nodelabel cell_C" s:attribute="ref">C</text>
    <s:alias val="$_outputExt_"/>
    <path d="M30,0 L30,20 L15,20 L0,10 L15,0 Z" class="cell_C"/>
    <g s:x="0" s:y="10" s:pid="A"/>
  </g>
  <g s:type="join" transform="translate(309,21.5)" s:width="4" s:height="40" id="cell_$join$,10,11,12,13,">
    <rect width="5" height="80" class="splitjoinBody" s:generic="body"/>
    <s:alias val="$_join_"/>
    <g s:x="5" s:y="20" s:pid="out"/>
    <g transform="translate(0,10)" s:x="0" s:y="10" s:pid="in0">
      <text x="-3" y="-4" class="inputPortLabel">0</text>
    </g>
    <g transform="translate(0,30)" s:x="0" s:y="10" s:pid="in0">
      <text x="-3" y="-4" class="inputPortLabel">1</text>
    </g>
    <g transform="translate(0,50)" s:x="0" s:y="10" s:pid="in0">
      <text x="-3" y="-4" class="inputPortLabel">2</text>
    </g>
    <g transform="translate(0,70)" s:x="0" s:y="10" s:pid="in0">
      <text x="-3" y="-4" class="inputPortLabel">3</text>
    </g>
  </g>
  <g s:type="split" transform="translate(77,126.5)" s:width="5" s:height="40" id="cell_$split$,2,3,4,5,">
    <rect width="5" height="80" class="splitjoinBody" s:generic="body"/>
    <s:alias val="$_split_"/>
    <g s:x="0" s:y="20" s:pid="in"/>
    <g transform="translate(4,10)" s:x="4" s:y="10" s:pid="out0">
      <text x="5" y="-4">2</text>
    </g>
    <g transform="translate(4,30)" s:x="4" s:y="10" s:pid="out0">
      <text x="5" y="-4">3</text>
    </g>
    <g transform="translate(4,50)" s:x="4" s:y="10" s:pid="out0">
      <text x="5" y="-4">1</text>
    </g>
    <g transform="translate(4,70)" s:x="4" s:y="10" s:pid="out0">
      <text x="5" y="-4">0</text>
    </g>
  </g>
  <g s:type="split" transform="translate(77,241.5)" s:width="5" s:height="40" id="cell_$split$,6,7,8,9,">
    <rect width="5" height="80" class="splitjoinBody" s:generic="body"/>
    <s:alias val="$_split_"/>
    <g s:x="0" s:y="20" s:pid="in"/>
    <g transform="translate(4,10)" s:x="4" s:y="10" s:pid="out0">
      <text x="5" y="-4">1</text>
    </g>
    <g transform="translate(4,30)" s:x="4" s:y="10" s:pid="out0">
      <text x="5" y="-4">2</text>
    </g>
    <g transform="translate(4,50)" s:x="4" s:y="10" s:pid="out0">
      <text x="5" y="-4">0</text>
    </g>
    <g transform="translate(4,70)" s:x="4" s:y="10" s:pid="out0">
      <text x="5" y="-4">3</text>
    </g>
  </g>
  <line x1="82" x2="99" y1="137" y2="137" class="net_4"/>
  <line x1="99" x2="99" y1="137" y2="377" class="net_4"/>
  <line x1="99" x2="169" y1="377" y2="377" class="net_4"/>
  <line x1="82" x2="99" y1="137" y2="137" class="net_4"/>
  <line x1="99" x2="99" y1="137" y2="317" class="net_4"/>
  <circle cx="99" cy="317" r="2" style="fill:#000" class="net_4"/>
  <line x1="99" x2="169" y1="317" y2="317" class="net_4"/>
  <line x1="82" x2="149" y1="252" y2="252" class="net_7"/>
  <line x1="149" x2="149" y1="252" y2="392" class="net_7"/>
  <circle cx="149" cy="252" r="2" style="fill:#000" class="net_7"/>
  <line x1="149" x2="169" y1="392" y2="392" class="net_7"/>
  <line x1="82" x2="149" y1="252" y2="252" class="net_7"/>
  <line x1="149" x2="149" y1="252" y2="212" class="net_7"/>
  <line x1="149" x2="169" y1="212" y2="212" class="net_7"/>
  <line x1="82" x2="139" y1="157" y2="157" class="net_5"/>
  <line x1="139" x2="139" y1="157" y2="257" class="net_5"/>
  <circle cx="139" cy="257" r="2" style="fill:#000" class="net_5"/>
  <line x1="139" x2="169" y1="257" y2="257" class="net_5"/>
  <line x1="82" x2="139" y1="157" y2="157" class="net_5"/>
  <line x1="139" x2="139" y1="157" y2="437" class="net_5"/>
  <line x1="139" x2="169" y1="437" y2="437" class="net_5"/>
  <line x1="82" x2="169" y1="272" y2="272" class="net_8"/>
  <line x1="82" x2="119" y1="272" y2="272" class="net_8"/>
  <line x1="119" x2="119" y1="272" y2="32" class="net_8"/>
  <circle cx="119" cy="272" r="2" style="fill:#000" class="net_8"/>
  <line x1="119" x2="169" y1="32" y2="32" class="net_8"/>
  <line x1="82" x2="159" y1="292" y2="292" class="net_6"/>
  <line x1="159" x2="159" y1="292" y2="332" class="net_6"/>
  <circle cx="159" cy="292" r="2" style="fill:#000" class="net_6"/>
  <line x1="159" x2="169" y1="332" y2="332" class="net_6"/>
  <line x1="82" x2="159" y1="292" y2="292" class="net_6"/>
  <line x1="159" x2="159" y1="292" y2="92" class="net_6"/>
  <line x1="159" x2="169" y1="92" y2="92" class="net_6"/>
  <line x1="82" x2="109" y1="177" y2="177" class="net_3"/>
  <line x1="109" x2="109" y1="177" y2="137" class="net_3"/>
  <circle cx="109" cy="137" r="2" style="fill:#000" class="net_3"/>
  <line x1="109" x2="169" y1="137" y2="137" class="net_3"/>
  <line x1="82" x2="109" y1="177" y2="177" class="net_3"/>
  <line x1="109" x2="109" y1="177" y2="17" class="net_3"/>
  <line x1="109" x2="169" y1="17" y2="17" class="net_3"/>
  <line x1="82" x2="129" y1="312" y2="312" class="net_9"/>
  <line x1="129" x2="129" y1="312" y2="152" class="net_9"/>
  <circle cx="129" cy="312" r="2" style="fill:#000" class="net_9"/>
  <line x1="129" x2="169" y1="152" y2="152" class="net_9"/>
  <line x1="82" x2="129" y1="312" y2="312" class="net_9"/>
  <line x1="129" x2="129" y1="312" y2="452" class="net_9"/>
  <line x1="129" x2="169" y1="452" y2="452" class="net_9"/>
  <line x1="82" x2="169" y1="197" y2="197" class="net_2"/>
  <line x1="82" x2="149" y1="197" y2="197" class="net_2"/>
  <line x1="149" x2="149" y1="197" y2="77" class="net_2"/>
  <circle cx="149" cy="197" r="2" style="fill:#000" class="net_2"/>
  <line x1="149" x2="169" y1="77" y2="77" class="net_2"/>
  <line x1="199" x2="209" y1="444.5" y2="444.5" class="net_21"/>
  <line x1="209" x2="209" y1="444.5" y2="369.5" class="net_21"/>
  <line x1="209" x2="237" y1="369.5" y2="369.5" class="net_21"/>
  <line x1="199" x2="237" y1="384.5" y2="384.5" class="net_14"/>
  <line x1="199" x2="237" y1="264.5" y2="264.5" class="net_15"/>
  <line x1="199" x2="209" y1="324.5" y2="324.5" class="net_16"/>
  <line x1="209" x2="209" y1="324.5" y2="279.5" class="net_16"/>
  <line x1="209" x2="237" y1="279.5" y2="279.5" class="net_16"/>
  <line x1="199" x2="237" y1="144.5" y2="144.5" class="net_17"/>
  <line x1="199" x2="209" y1="204.5" y2="204.5" class="net_18"/>
  <line x1="209" x2="209" y1="204.5" y2="159.5" class="net_18"/>
  <line x1="209" x2="237" y1="159.5" y2="159.5" class="net_18"/>
  <line x1="199" x2="237" y1="24.5" y2="24.5" class="net_19"/>
  <line x1="199" x2="209" y1="84.5" y2="84.5" class="net_20"/>
  <line x1="209" x2="209" y1="84.5" y2="39.5" class="net_20"/>
  <line x1="209" x2="237" y1="39.5" y2="39.5" class="net_20"/>
  <line x1="315" x2="350" y1="42" y2="42" class="net_10,11,12,13"/>
  <line x1="267" x2="309" y1="32" y2="32" class="net_10"/>
  <line x1="267" x2="277" y1="152" y2="152" class="net_11"/>
  <line x1="277" x2="277" y1="152" y2="52" class="net_11"/>
  <line x1="277" x2="309" y1="52" y2="52" class="net_11"/>
  <line x1="267" x2="287" y1="272" y2="272" class="net_12"/>
  <line x1="287" x2="287" y1="272" y2="72" class="net_12"/>
  <line x1="287" x2="309" y1="72" y2="72" class="net_12"/>
  <line x1="267" x2="309.5" y1="377" y2="377" class="net_13"/>
  <line x1="309.5" x2="309.5" y1="377" y2="92.5" class="net_13"/>
  <line x1="40" x2="77" y1="147" y2="147" class="net_2,3,4,5"/>
  <line x1="40" x2="77" y1="262" y2="262" class="net_6,7,8,9"/>
</svg>
