<svg xmlns="http://www.w3.org/2000/svg" xmlns:xlink="http://www.w3.org/1999/xlink" xmlns:s="https://github.com/nturley/netlistsvg" width="663" height="1262.5">
  <style>svg {
    stroke:#000;
    fill:none;
  }
  text {
    fill:#000;
    stroke:none;
    font-size:10px;
    font-weight: bold;
    font-family: "Courier New", monospace;
  }
  .nodelabel {
    text-anchor: middle;
  }
  .inputPortLabel {
    text-anchor: end;
  }
  .splitjoinBody {
    fill:#000;
  }</style>
  <g s:type="and" transform="translate(325,1089.5)" s:width="30" s:height="25" id="cell_$auto$simplemap.cc:83:simplemap_bitop$211">
    <s:alias val="$and"/>
    <s:alias val="$logic_and"/>
    <s:alias val="$_AND_"/>
    <path d="M0,0 L0,25 L15,25 A15 12.5 0 0 0 15,0 Z" class="cell_$auto$simplemap.cc:83:simplemap_bitop$211"/>
    <g s:x="0" s:y="5" s:pid="A"/>
    <g s:x="0" s:y="20" s:pid="B"/>
    <g s:x="30" s:y="12.5" s:pid="Y"/>
  </g>
  <g s:type="and" transform="translate(259,1120.5)" s:width="30" s:height="25" id="cell_$auto$simplemap.cc:83:simplemap_bitop$212">
    <s:alias val="$and"/>
    <s:alias val="$logic_and"/>
    <s:alias val="$_AND_"/>
    <path d="M0,0 L0,25 L15,25 A15 12.5 0 0 0 15,0 Z" class="cell_$auto$simplemap.cc:83:simplemap_bitop$212"/>
    <g s:x="0" s:y="5" s:pid="A"/>
    <g s:x="0" s:y="20" s:pid="B"/>
    <g s:x="30" s:y="12.5" s:pid="Y"/>
  </g>
  <g s:type="and" transform="translate(325,622.5)" s:width="30" s:height="25" id="cell_$auto$simplemap.cc:83:simplemap_bitop$213">
    <s:alias val="$and"/>
    <s:alias val="$logic_and"/>
    <s:alias val="$_AND_"/>
    <path d="M0,0 L0,25 L15,25 A15 12.5 0 0 0 15,0 Z" class="cell_$auto$simplemap.cc:83:simplemap_bitop$213"/>
    <g s:x="0" s:y="5" s:pid="A"/>
    <g s:x="0" s:y="20" s:pid="B"/>
    <g s:x="30" s:y="12.5" s:pid="Y"/>
  </g>
  <g s:type="and" transform="translate(259,653.5)" s:width="30" s:height="25" id="cell_$auto$simplemap.cc:83:simplemap_bitop$214">
    <s:alias val="$and"/>
    <s:alias val="$logic_and"/>
    <s:alias val="$_AND_"/>
    <path d="M0,0 L0,25 L15,25 A15 12.5 0 0 0 15,0 Z" class="cell_$auto$simplemap.cc:83:simplemap_bitop$214"/>
    <g s:x="0" s:y="5" s:pid="A"/>
    <g s:x="0" s:y="20" s:pid="B"/>
    <g s:x="30" s:y="12.5" s:pid="Y"/>
  </g>
  <g s:type="and" transform="translate(325,886)" s:width="30" s:height="25" id="cell_$auto$simplemap.cc:83:simplemap_bitop$215">
    <s:alias val="$and"/>
    <s:alias val="$logic_and"/>
    <s:alias val="$_AND_"/>
    <path d="M0,0 L0,25 L15,25 A15 12.5 0 0 0 15,0 Z" class="cell_$auto$simplemap.cc:83:simplemap_bitop$215"/>
    <g s:x="0" s:y="5" s:pid="A"/>
    <g s:x="0" s:y="20" s:pid="B"/>
    <g s:x="30" s:y="12.5" s:pid="Y"/>
  </g>
  <g s:type="and" transform="translate(259,773.5)" s:width="30" s:height="25" id="cell_$auto$simplemap.cc:83:simplemap_bitop$216">
    <s:alias val="$and"/>
    <s:alias val="$logic_and"/>
    <s:alias val="$_AND_"/>
    <path d="M0,0 L0,25 L15,25 A15 12.5 0 0 0 15,0 Z" class="cell_$auto$simplemap.cc:83:simplemap_bitop$216"/>
    <g s:x="0" s:y="5" s:pid="A"/>
    <g s:x="0" s:y="20" s:pid="B"/>
    <g s:x="30" s:y="12.5" s:pid="Y"/>
  </g>
  <g s:type="and" transform="translate(325,419)" s:width="30" s:height="25" id="cell_$auto$simplemap.cc:83:simplemap_bitop$217">
    <s:alias val="$and"/>
    <s:alias val="$logic_and"/>
    <s:alias val="$_AND_"/>
    <path d="M0,0 L0,25 L15,25 A15 12.5 0 0 0 15,0 Z" class="cell_$auto$simplemap.cc:83:simplemap_bitop$217"/>
    <g s:x="0" s:y="5" s:pid="A"/>
    <g s:x="0" s:y="20" s:pid="B"/>
    <g s:x="30" s:y="12.5" s:pid="Y"/>
  </g>
  <g s:type="and" transform="translate(259,306.5)" s:width="30" s:height="25" id="cell_$auto$simplemap.cc:83:simplemap_bitop$218">
    <s:alias val="$and"/>
    <s:alias val="$logic_and"/>
    <s:alias val="$_AND_"/>
    <path d="M0,0 L0,25 L15,25 A15 12.5 0 0 0 15,0 Z" class="cell_$auto$simplemap.cc:83:simplemap_bitop$218"/>
    <g s:x="0" s:y="5" s:pid="A"/>
    <g s:x="0" s:y="20" s:pid="B"/>
    <g s:x="30" s:y="12.5" s:pid="Y"/>
  </g>
  <g s:type="and" transform="translate(325,562.5)" s:width="30" s:height="25" id="cell_$auto$simplemap.cc:83:simplemap_bitop$219">
    <s:alias val="$and"/>
    <s:alias val="$logic_and"/>
    <s:alias val="$_AND_"/>
    <path d="M0,0 L0,25 L15,25 A15 12.5 0 0 0 15,0 Z" class="cell_$auto$simplemap.cc:83:simplemap_bitop$219"/>
    <g s:x="0" s:y="5" s:pid="A"/>
    <g s:x="0" s:y="20" s:pid="B"/>
    <g s:x="30" s:y="12.5" s:pid="Y"/>
  </g>
  <g s:type="and" transform="translate(259,450)" s:width="30" s:height="25" id="cell_$auto$simplemap.cc:83:simplemap_bitop$220">
    <s:alias val="$and"/>
    <s:alias val="$logic_and"/>
    <s:alias val="$_AND_"/>
    <path d="M0,0 L0,25 L15,25 A15 12.5 0 0 0 15,0 Z" class="cell_$auto$simplemap.cc:83:simplemap_bitop$220"/>
    <g s:x="0" s:y="5" s:pid="A"/>
    <g s:x="0" s:y="20" s:pid="B"/>
    <g s:x="30" s:y="12.5" s:pid="Y"/>
  </g>
  <g s:type="and" transform="translate(325,12)" s:width="30" s:height="25" id="cell_$auto$simplemap.cc:83:simplemap_bitop$221">
    <s:alias val="$and"/>
    <s:alias val="$logic_and"/>
    <s:alias val="$_AND_"/>
    <path d="M0,0 L0,25 L15,25 A15 12.5 0 0 0 15,0 Z" class="cell_$auto$simplemap.cc:83:simplemap_bitop$221"/>
    <g s:x="0" s:y="5" s:pid="A"/>
    <g s:x="0" s:y="20" s:pid="B"/>
    <g s:x="30" s:y="12.5" s:pid="Y"/>
  </g>
  <g s:type="and" transform="translate(259,43)" s:width="30" s:height="25" id="cell_$auto$simplemap.cc:83:simplemap_bitop$222">
    <s:alias val="$and"/>
    <s:alias val="$logic_and"/>
    <s:alias val="$_AND_"/>
    <path d="M0,0 L0,25 L15,25 A15 12.5 0 0 0 15,0 Z" class="cell_$auto$simplemap.cc:83:simplemap_bitop$222"/>
    <g s:x="0" s:y="5" s:pid="A"/>
    <g s:x="0" s:y="20" s:pid="B"/>
    <g s:x="30" s:y="12.5" s:pid="Y"/>
  </g>
  <g s:type="and" transform="translate(325,155.5)" s:width="30" s:height="25" id="cell_$auto$simplemap.cc:83:simplemap_bitop$223">
    <s:alias val="$and"/>
    <s:alias val="$logic_and"/>
    <s:alias val="$_AND_"/>
    <path d="M0,0 L0,25 L15,25 A15 12.5 0 0 0 15,0 Z" class="cell_$auto$simplemap.cc:83:simplemap_bitop$223"/>
    <g s:x="0" s:y="5" s:pid="A"/>
    <g s:x="0" s:y="20" s:pid="B"/>
    <g s:x="30" s:y="12.5" s:pid="Y"/>
  </g>
  <g s:type="and" transform="translate(259,186.5)" s:width="30" s:height="25" id="cell_$auto$simplemap.cc:83:simplemap_bitop$224">
    <s:alias val="$and"/>
    <s:alias val="$logic_and"/>
    <s:alias val="$_AND_"/>
    <path d="M0,0 L0,25 L15,25 A15 12.5 0 0 0 15,0 Z" class="cell_$auto$simplemap.cc:83:simplemap_bitop$224"/>
    <g s:x="0" s:y="5" s:pid="A"/>
    <g s:x="0" s:y="20" s:pid="B"/>
    <g s:x="30" s:y="12.5" s:pid="Y"/>
  </g>
  <g s:type="reduce_xor" transform="translate(485,1218)" s:width="33" s:height="25" id="cell_$auto$simplemap.cc:83:simplemap_bitop$226">
    <s:alias val="$xor"/>
    <s:alias val="$reduce_xor"/>
    <s:alias val="$_XOR_"/>
    <path d="M3,0 A30 25 0 0 1 3,25 A30 25 0 0 0 33,12.5 A30 25 0 0 0 3,0" class="cell_$auto$simplemap.cc:83:simplemap_bitop$226"/>
    <path d="M0,0 A30 25 0 0 1 0,25" class="cell_$auto$simplemap.cc:83:simplemap_bitop$226"/>
    <g s:x="3" s:y="5" s:pid="A"/>
    <g s:x="3" s:y="20" s:pid="B"/>
    <g s:x="33" s:y="12.5" s:pid="Y"/>
  </g>
  <g s:type="reduce_xor" transform="translate(485,1082)" s:width="33" s:height="25" id="cell_$auto$simplemap.cc:83:simplemap_bitop$228">
    <s:alias val="$xor"/>
    <s:alias val="$reduce_xor"/>
    <s:alias val="$_XOR_"/>
    <path d="M3,0 A30 25 0 0 1 3,25 A30 25 0 0 0 33,12.5 A30 25 0 0 0 3,0" class="cell_$auto$simplemap.cc:83:simplemap_bitop$228"/>
    <path d="M0,0 A30 25 0 0 1 0,25" class="cell_$auto$simplemap.cc:83:simplemap_bitop$228"/>
    <g s:x="3" s:y="5" s:pid="A"/>
    <g s:x="3" s:y="20" s:pid="B"/>
    <g s:x="33" s:y="12.5" s:pid="Y"/>
  </g>
  <g s:type="reduce_xor" transform="translate(417,1165.5)" s:width="33" s:height="25" id="cell_$auto$simplemap.cc:83:simplemap_bitop$229">
    <s:alias val="$xor"/>
    <s:alias val="$reduce_xor"/>
    <s:alias val="$_XOR_"/>
    <path d="M3,0 A30 25 0 0 1 3,25 A30 25 0 0 0 33,12.5 A30 25 0 0 0 3,0" class="cell_$auto$simplemap.cc:83:simplemap_bitop$229"/>
    <path d="M0,0 A30 25 0 0 1 0,25" class="cell_$auto$simplemap.cc:83:simplemap_bitop$229"/>
    <g s:x="3" s:y="5" s:pid="A"/>
    <g s:x="3" s:y="20" s:pid="B"/>
    <g s:x="33" s:y="12.5" s:pid="Y"/>
  </g>
  <g s:type="and" transform="translate(418,1225.5)" s:width="30" s:height="25" id="cell_$auto$simplemap.cc:83:simplemap_bitop$230">
    <s:alias val="$and"/>
    <s:alias val="$logic_and"/>
    <s:alias val="$_AND_"/>
    <path d="M0,0 L0,25 L15,25 A15 12.5 0 0 0 15,0 Z" class="cell_$auto$simplemap.cc:83:simplemap_bitop$230"/>
    <g s:x="0" s:y="5" s:pid="A"/>
    <g s:x="0" s:y="20" s:pid="B"/>
    <g s:x="30" s:y="12.5" s:pid="Y"/>
  </g>
  <g s:type="reduce_xor" transform="translate(485,871)" s:width="33" s:height="25" id="cell_$auto$simplemap.cc:83:simplemap_bitop$243">
    <s:alias val="$xor"/>
    <s:alias val="$reduce_xor"/>
    <s:alias val="$_XOR_"/>
    <path d="M3,0 A30 25 0 0 1 3,25 A30 25 0 0 0 33,12.5 A30 25 0 0 0 3,0" class="cell_$auto$simplemap.cc:83:simplemap_bitop$243"/>
    <path d="M0,0 A30 25 0 0 1 0,25" class="cell_$auto$simplemap.cc:83:simplemap_bitop$243"/>
    <g s:x="3" s:y="5" s:pid="A"/>
    <g s:x="3" s:y="20" s:pid="B"/>
    <g s:x="33" s:y="12.5" s:pid="Y"/>
  </g>
  <g s:type="reduce_xor" transform="translate(485,787.5)" s:width="33" s:height="25" id="cell_$auto$simplemap.cc:83:simplemap_bitop$245">
    <s:alias val="$xor"/>
    <s:alias val="$reduce_xor"/>
    <s:alias val="$_XOR_"/>
    <path d="M3,0 A30 25 0 0 1 3,25 A30 25 0 0 0 33,12.5 A30 25 0 0 0 3,0" class="cell_$auto$simplemap.cc:83:simplemap_bitop$245"/>
    <path d="M0,0 A30 25 0 0 1 0,25" class="cell_$auto$simplemap.cc:83:simplemap_bitop$245"/>
    <g s:x="3" s:y="5" s:pid="A"/>
    <g s:x="3" s:y="20" s:pid="B"/>
    <g s:x="33" s:y="12.5" s:pid="Y"/>
  </g>
  <g s:type="reduce_xor" transform="translate(417,818.5)" s:width="33" s:height="25" id="cell_$auto$simplemap.cc:83:simplemap_bitop$246">
    <s:alias val="$xor"/>
    <s:alias val="$reduce_xor"/>
    <s:alias val="$_XOR_"/>
    <path d="M3,0 A30 25 0 0 1 3,25 A30 25 0 0 0 33,12.5 A30 25 0 0 0 3,0" class="cell_$auto$simplemap.cc:83:simplemap_bitop$246"/>
    <path d="M0,0 A30 25 0 0 1 0,25" class="cell_$auto$simplemap.cc:83:simplemap_bitop$246"/>
    <g s:x="3" s:y="5" s:pid="A"/>
    <g s:x="3" s:y="20" s:pid="B"/>
    <g s:x="33" s:y="12.5" s:pid="Y"/>
  </g>
  <g s:type="and" transform="translate(418,878.5)" s:width="30" s:height="25" id="cell_$auto$simplemap.cc:83:simplemap_bitop$247">
    <s:alias val="$and"/>
    <s:alias val="$logic_and"/>
    <s:alias val="$_AND_"/>
    <path d="M0,0 L0,25 L15,25 A15 12.5 0 0 0 15,0 Z" class="cell_$auto$simplemap.cc:83:simplemap_bitop$247"/>
    <g s:x="0" s:y="5" s:pid="A"/>
    <g s:x="0" s:y="20" s:pid="B"/>
    <g s:x="30" s:y="12.5" s:pid="Y"/>
  </g>
  <g s:type="reduce_xor" transform="translate(485,547.5)" s:width="33" s:height="25" id="cell_$auto$simplemap.cc:83:simplemap_bitop$254">
    <s:alias val="$xor"/>
    <s:alias val="$reduce_xor"/>
    <s:alias val="$_XOR_"/>
    <path d="M3,0 A30 25 0 0 1 3,25 A30 25 0 0 0 33,12.5 A30 25 0 0 0 3,0" class="cell_$auto$simplemap.cc:83:simplemap_bitop$254"/>
    <path d="M0,0 A30 25 0 0 1 0,25" class="cell_$auto$simplemap.cc:83:simplemap_bitop$254"/>
    <g s:x="3" s:y="5" s:pid="A"/>
    <g s:x="3" s:y="20" s:pid="B"/>
    <g s:x="33" s:y="12.5" s:pid="Y"/>
  </g>
  <g s:type="reduce_xor" transform="translate(485,464)" s:width="33" s:height="25" id="cell_$auto$simplemap.cc:83:simplemap_bitop$256">
    <s:alias val="$xor"/>
    <s:alias val="$reduce_xor"/>
    <s:alias val="$_XOR_"/>
    <path d="M3,0 A30 25 0 0 1 3,25 A30 25 0 0 0 33,12.5 A30 25 0 0 0 3,0" class="cell_$auto$simplemap.cc:83:simplemap_bitop$256"/>
    <path d="M0,0 A30 25 0 0 1 0,25" class="cell_$auto$simplemap.cc:83:simplemap_bitop$256"/>
    <g s:x="3" s:y="5" s:pid="A"/>
    <g s:x="3" s:y="20" s:pid="B"/>
    <g s:x="33" s:y="12.5" s:pid="Y"/>
  </g>
  <g s:type="reduce_xor" transform="translate(417,495)" s:width="33" s:height="25" id="cell_$auto$simplemap.cc:83:simplemap_bitop$257">
    <s:alias val="$xor"/>
    <s:alias val="$reduce_xor"/>
    <s:alias val="$_XOR_"/>
    <path d="M3,0 A30 25 0 0 1 3,25 A30 25 0 0 0 33,12.5 A30 25 0 0 0 3,0" class="cell_$auto$simplemap.cc:83:simplemap_bitop$257"/>
    <path d="M0,0 A30 25 0 0 1 0,25" class="cell_$auto$simplemap.cc:83:simplemap_bitop$257"/>
    <g s:x="3" s:y="5" s:pid="A"/>
    <g s:x="3" s:y="20" s:pid="B"/>
    <g s:x="33" s:y="12.5" s:pid="Y"/>
  </g>
  <g s:type="and" transform="translate(418,555)" s:width="30" s:height="25" id="cell_$auto$simplemap.cc:83:simplemap_bitop$258">
    <s:alias val="$and"/>
    <s:alias val="$logic_and"/>
    <s:alias val="$_AND_"/>
    <path d="M0,0 L0,25 L15,25 A15 12.5 0 0 0 15,0 Z" class="cell_$auto$simplemap.cc:83:simplemap_bitop$258"/>
    <g s:x="0" s:y="5" s:pid="A"/>
    <g s:x="0" s:y="20" s:pid="B"/>
    <g s:x="30" s:y="12.5" s:pid="Y"/>
  </g>
  <g s:type="and" transform="translate(259,977)" s:width="30" s:height="25" id="cell_$auto$simplemap.cc:83:simplemap_bitop$265">
    <s:alias val="$and"/>
    <s:alias val="$logic_and"/>
    <s:alias val="$_AND_"/>
    <path d="M0,0 L0,25 L15,25 A15 12.5 0 0 0 15,0 Z" class="cell_$auto$simplemap.cc:83:simplemap_bitop$265"/>
    <g s:x="0" s:y="5" s:pid="A"/>
    <g s:x="0" s:y="20" s:pid="B"/>
    <g s:x="30" s:y="12.5" s:pid="Y"/>
  </g>
  <g s:type="and" transform="translate(325,946)" s:width="30" s:height="25" id="cell_$auto$simplemap.cc:83:simplemap_bitop$266">
    <s:alias val="$and"/>
    <s:alias val="$logic_and"/>
    <s:alias val="$_AND_"/>
    <path d="M0,0 L0,25 L15,25 A15 12.5 0 0 0 15,0 Z" class="cell_$auto$simplemap.cc:83:simplemap_bitop$266"/>
    <g s:x="0" s:y="5" s:pid="A"/>
    <g s:x="0" s:y="20" s:pid="B"/>
    <g s:x="30" s:y="12.5" s:pid="Y"/>
  </g>
  <g s:type="and" transform="translate(259,1037)" s:width="30" s:height="25" id="cell_$auto$simplemap.cc:83:simplemap_bitop$267">
    <s:alias val="$and"/>
    <s:alias val="$logic_and"/>
    <s:alias val="$_AND_"/>
    <path d="M0,0 L0,25 L15,25 A15 12.5 0 0 0 15,0 Z" class="cell_$auto$simplemap.cc:83:simplemap_bitop$267"/>
    <g s:x="0" s:y="5" s:pid="A"/>
    <g s:x="0" s:y="20" s:pid="B"/>
    <g s:x="30" s:y="12.5" s:pid="Y"/>
  </g>
  <g s:type="reduce_xor" transform="translate(485,389)" s:width="33" s:height="25" id="cell_$auto$simplemap.cc:83:simplemap_bitop$269">
    <s:alias val="$xor"/>
    <s:alias val="$reduce_xor"/>
    <s:alias val="$_XOR_"/>
    <path d="M3,0 A30 25 0 0 1 3,25 A30 25 0 0 0 33,12.5 A30 25 0 0 0 3,0" class="cell_$auto$simplemap.cc:83:simplemap_bitop$269"/>
    <path d="M0,0 A30 25 0 0 1 0,25" class="cell_$auto$simplemap.cc:83:simplemap_bitop$269"/>
    <g s:x="3" s:y="5" s:pid="A"/>
    <g s:x="3" s:y="20" s:pid="B"/>
    <g s:x="33" s:y="12.5" s:pid="Y"/>
  </g>
  <g s:type="reduce_xor" transform="translate(485,148)" s:width="33" s:height="25" id="cell_$auto$simplemap.cc:83:simplemap_bitop$271">
    <s:alias val="$xor"/>
    <s:alias val="$reduce_xor"/>
    <s:alias val="$_XOR_"/>
    <path d="M3,0 A30 25 0 0 1 3,25 A30 25 0 0 0 33,12.5 A30 25 0 0 0 3,0" class="cell_$auto$simplemap.cc:83:simplemap_bitop$271"/>
    <path d="M0,0 A30 25 0 0 1 0,25" class="cell_$auto$simplemap.cc:83:simplemap_bitop$271"/>
    <g s:x="3" s:y="5" s:pid="A"/>
    <g s:x="3" s:y="20" s:pid="B"/>
    <g s:x="33" s:y="12.5" s:pid="Y"/>
  </g>
  <g s:type="reduce_xor" transform="translate(417,231.5)" s:width="33" s:height="25" id="cell_$auto$simplemap.cc:83:simplemap_bitop$272">
    <s:alias val="$xor"/>
    <s:alias val="$reduce_xor"/>
    <s:alias val="$_XOR_"/>
    <path d="M3,0 A30 25 0 0 1 3,25 A30 25 0 0 0 33,12.5 A30 25 0 0 0 3,0" class="cell_$auto$simplemap.cc:83:simplemap_bitop$272"/>
    <path d="M0,0 A30 25 0 0 1 0,25" class="cell_$auto$simplemap.cc:83:simplemap_bitop$272"/>
    <g s:x="3" s:y="5" s:pid="A"/>
    <g s:x="3" s:y="20" s:pid="B"/>
    <g s:x="33" s:y="12.5" s:pid="Y"/>
  </g>
  <g s:type="and" transform="translate(418,396.5)" s:width="30" s:height="25" id="cell_$auto$simplemap.cc:83:simplemap_bitop$273">
    <s:alias val="$and"/>
    <s:alias val="$logic_and"/>
    <s:alias val="$_AND_"/>
    <path d="M0,0 L0,25 L15,25 A15 12.5 0 0 0 15,0 Z" class="cell_$auto$simplemap.cc:83:simplemap_bitop$273"/>
    <g s:x="0" s:y="5" s:pid="A"/>
    <g s:x="0" s:y="20" s:pid="B"/>
    <g s:x="30" s:y="12.5" s:pid="Y"/>
  </g>
  <g s:type="and" transform="translate(259,1180.5)" s:width="30" s:height="25" id="cell_$auto$simplemap.cc:83:simplemap_bitop$280">
    <s:alias val="$and"/>
    <s:alias val="$logic_and"/>
    <s:alias val="$_AND_"/>
    <path d="M0,0 L0,25 L15,25 A15 12.5 0 0 0 15,0 Z" class="cell_$auto$simplemap.cc:83:simplemap_bitop$280"/>
    <g s:x="0" s:y="5" s:pid="A"/>
    <g s:x="0" s:y="20" s:pid="B"/>
    <g s:x="30" s:y="12.5" s:pid="Y"/>
  </g>
  <g s:type="and" transform="translate(259,713.5)" s:width="30" s:height="25" id="cell_$auto$simplemap.cc:83:simplemap_bitop$282">
    <s:alias val="$and"/>
    <s:alias val="$logic_and"/>
    <s:alias val="$_AND_"/>
    <path d="M0,0 L0,25 L15,25 A15 12.5 0 0 0 15,0 Z" class="cell_$auto$simplemap.cc:83:simplemap_bitop$282"/>
    <g s:x="0" s:y="5" s:pid="A"/>
    <g s:x="0" s:y="20" s:pid="B"/>
    <g s:x="30" s:y="12.5" s:pid="Y"/>
  </g>
  <g s:type="and" transform="translate(259,833.5)" s:width="30" s:height="25" id="cell_$auto$simplemap.cc:83:simplemap_bitop$284">
    <s:alias val="$and"/>
    <s:alias val="$logic_and"/>
    <s:alias val="$_AND_"/>
    <path d="M0,0 L0,25 L15,25 A15 12.5 0 0 0 15,0 Z" class="cell_$auto$simplemap.cc:83:simplemap_bitop$284"/>
    <g s:x="0" s:y="5" s:pid="A"/>
    <g s:x="0" s:y="20" s:pid="B"/>
    <g s:x="30" s:y="12.5" s:pid="Y"/>
  </g>
  <g s:type="and" transform="translate(259,366.5)" s:width="30" s:height="25" id="cell_$auto$simplemap.cc:83:simplemap_bitop$286">
    <s:alias val="$and"/>
    <s:alias val="$logic_and"/>
    <s:alias val="$_AND_"/>
    <path d="M0,0 L0,25 L15,25 A15 12.5 0 0 0 15,0 Z" class="cell_$auto$simplemap.cc:83:simplemap_bitop$286"/>
    <g s:x="0" s:y="5" s:pid="A"/>
    <g s:x="0" s:y="20" s:pid="B"/>
    <g s:x="30" s:y="12.5" s:pid="Y"/>
  </g>
  <g s:type="and" transform="translate(259,510)" s:width="30" s:height="25" id="cell_$auto$simplemap.cc:83:simplemap_bitop$288">
    <s:alias val="$and"/>
    <s:alias val="$logic_and"/>
    <s:alias val="$_AND_"/>
    <path d="M0,0 L0,25 L15,25 A15 12.5 0 0 0 15,0 Z" class="cell_$auto$simplemap.cc:83:simplemap_bitop$288"/>
    <g s:x="0" s:y="5" s:pid="A"/>
    <g s:x="0" s:y="20" s:pid="B"/>
    <g s:x="30" s:y="12.5" s:pid="Y"/>
  </g>
  <g s:type="and" transform="translate(259,103)" s:width="30" s:height="25" id="cell_$auto$simplemap.cc:83:simplemap_bitop$290">
    <s:alias val="$and"/>
    <s:alias val="$logic_and"/>
    <s:alias val="$_AND_"/>
    <path d="M0,0 L0,25 L15,25 A15 12.5 0 0 0 15,0 Z" class="cell_$auto$simplemap.cc:83:simplemap_bitop$290"/>
    <g s:x="0" s:y="5" s:pid="A"/>
    <g s:x="0" s:y="20" s:pid="B"/>
    <g s:x="30" s:y="12.5" s:pid="Y"/>
  </g>
  <g s:type="and" transform="translate(259,246.5)" s:width="30" s:height="25" id="cell_$auto$simplemap.cc:83:simplemap_bitop$292">
    <s:alias val="$and"/>
    <s:alias val="$logic_and"/>
    <s:alias val="$_AND_"/>
    <path d="M0,0 L0,25 L15,25 A15 12.5 0 0 0 15,0 Z" class="cell_$auto$simplemap.cc:83:simplemap_bitop$292"/>
    <g s:x="0" s:y="5" s:pid="A"/>
    <g s:x="0" s:y="20" s:pid="B"/>
    <g s:x="30" s:y="12.5" s:pid="Y"/>
  </g>
  <g s:type="reduce_xor" transform="translate(324,1029.5)" s:width="33" s:height="25" id="cell_$auto$simplemap.cc:83:simplemap_bitop$312">
    <s:alias val="$xor"/>
    <s:alias val="$reduce_xor"/>
    <s:alias val="$_XOR_"/>
    <path d="M3,0 A30 25 0 0 1 3,25 A30 25 0 0 0 33,12.5 A30 25 0 0 0 3,0" class="cell_$auto$simplemap.cc:83:simplemap_bitop$312"/>
    <path d="M0,0 A30 25 0 0 1 0,25" class="cell_$auto$simplemap.cc:83:simplemap_bitop$312"/>
    <g s:x="3" s:y="5" s:pid="A"/>
    <g s:x="3" s:y="20" s:pid="B"/>
    <g s:x="33" s:y="12.5" s:pid="Y"/>
  </g>
  <g s:type="reduce_xor" transform="translate(324,1173)" s:width="33" s:height="25" id="cell_$auto$simplemap.cc:83:simplemap_bitop$327">
    <s:alias val="$xor"/>
    <s:alias val="$reduce_xor"/>
    <s:alias val="$_XOR_"/>
    <path d="M3,0 A30 25 0 0 1 3,25 A30 25 0 0 0 33,12.5 A30 25 0 0 0 3,0" class="cell_$auto$simplemap.cc:83:simplemap_bitop$327"/>
    <path d="M0,0 A30 25 0 0 1 0,25" class="cell_$auto$simplemap.cc:83:simplemap_bitop$327"/>
    <g s:x="3" s:y="5" s:pid="A"/>
    <g s:x="3" s:y="20" s:pid="B"/>
    <g s:x="33" s:y="12.5" s:pid="Y"/>
  </g>
  <g s:type="reduce_xor" transform="translate(324,706)" s:width="33" s:height="25" id="cell_$auto$simplemap.cc:83:simplemap_bitop$338">
    <s:alias val="$xor"/>
    <s:alias val="$reduce_xor"/>
    <s:alias val="$_XOR_"/>
    <path d="M3,0 A30 25 0 0 1 3,25 A30 25 0 0 0 33,12.5 A30 25 0 0 0 3,0" class="cell_$auto$simplemap.cc:83:simplemap_bitop$338"/>
    <path d="M0,0 A30 25 0 0 1 0,25" class="cell_$auto$simplemap.cc:83:simplemap_bitop$338"/>
    <g s:x="3" s:y="5" s:pid="A"/>
    <g s:x="3" s:y="20" s:pid="B"/>
    <g s:x="33" s:y="12.5" s:pid="Y"/>
  </g>
  <g s:type="reduce_xor" transform="translate(324,826)" s:width="33" s:height="25" id="cell_$auto$simplemap.cc:83:simplemap_bitop$349">
    <s:alias val="$xor"/>
    <s:alias val="$reduce_xor"/>
    <s:alias val="$_XOR_"/>
    <path d="M3,0 A30 25 0 0 1 3,25 A30 25 0 0 0 33,12.5 A30 25 0 0 0 3,0" class="cell_$auto$simplemap.cc:83:simplemap_bitop$349"/>
    <path d="M0,0 A30 25 0 0 1 0,25" class="cell_$auto$simplemap.cc:83:simplemap_bitop$349"/>
    <g s:x="3" s:y="5" s:pid="A"/>
    <g s:x="3" s:y="20" s:pid="B"/>
    <g s:x="33" s:y="12.5" s:pid="Y"/>
  </g>
  <g s:type="reduce_xor" transform="translate(324,359)" s:width="33" s:height="25" id="cell_$auto$simplemap.cc:83:simplemap_bitop$360">
    <s:alias val="$xor"/>
    <s:alias val="$reduce_xor"/>
    <s:alias val="$_XOR_"/>
    <path d="M3,0 A30 25 0 0 1 3,25 A30 25 0 0 0 33,12.5 A30 25 0 0 0 3,0" class="cell_$auto$simplemap.cc:83:simplemap_bitop$360"/>
    <path d="M0,0 A30 25 0 0 1 0,25" class="cell_$auto$simplemap.cc:83:simplemap_bitop$360"/>
    <g s:x="3" s:y="5" s:pid="A"/>
    <g s:x="3" s:y="20" s:pid="B"/>
    <g s:x="33" s:y="12.5" s:pid="Y"/>
  </g>
  <g s:type="reduce_xor" transform="translate(324,502.5)" s:width="33" s:height="25" id="cell_$auto$simplemap.cc:83:simplemap_bitop$371">
    <s:alias val="$xor"/>
    <s:alias val="$reduce_xor"/>
    <s:alias val="$_XOR_"/>
    <path d="M3,0 A30 25 0 0 1 3,25 A30 25 0 0 0 33,12.5 A30 25 0 0 0 3,0" class="cell_$auto$simplemap.cc:83:simplemap_bitop$371"/>
    <path d="M0,0 A30 25 0 0 1 0,25" class="cell_$auto$simplemap.cc:83:simplemap_bitop$371"/>
    <g s:x="3" s:y="5" s:pid="A"/>
    <g s:x="3" s:y="20" s:pid="B"/>
    <g s:x="33" s:y="12.5" s:pid="Y"/>
  </g>
  <g s:type="reduce_xor" transform="translate(324,95.5)" s:width="33" s:height="25" id="cell_$auto$simplemap.cc:83:simplemap_bitop$382">
    <s:alias val="$xor"/>
    <s:alias val="$reduce_xor"/>
    <s:alias val="$_XOR_"/>
    <path d="M3,0 A30 25 0 0 1 3,25 A30 25 0 0 0 33,12.5 A30 25 0 0 0 3,0" class="cell_$auto$simplemap.cc:83:simplemap_bitop$382"/>
    <path d="M0,0 A30 25 0 0 1 0,25" class="cell_$auto$simplemap.cc:83:simplemap_bitop$382"/>
    <g s:x="3" s:y="5" s:pid="A"/>
    <g s:x="3" s:y="20" s:pid="B"/>
    <g s:x="33" s:y="12.5" s:pid="Y"/>
  </g>
  <g s:type="reduce_xor" transform="translate(324,239)" s:width="33" s:height="25" id="cell_$auto$simplemap.cc:83:simplemap_bitop$393">
    <s:alias val="$xor"/>
    <s:alias val="$reduce_xor"/>
    <s:alias val="$_XOR_"/>
    <path d="M3,0 A30 25 0 0 1 3,25 A30 25 0 0 0 33,12.5 A30 25 0 0 0 3,0" class="cell_$auto$simplemap.cc:83:simplemap_bitop$393"/>
    <path d="M0,0 A30 25 0 0 1 0,25" class="cell_$auto$simplemap.cc:83:simplemap_bitop$393"/>
    <g s:x="3" s:y="5" s:pid="A"/>
    <g s:x="3" s:y="20" s:pid="B"/>
    <g s:x="33" s:y="12.5" s:pid="Y"/>
  </g>
  <g s:type="inputExt" transform="translate(12,295.5)" s:width="30" s:height="20" id="cell_A">
    <text x="15" y="-4" class="nodelabel cell_A" s:attribute="ref">A</text>
    <s:alias val="$_inputExt_"/>
    <path d="M0,0 L0,20 L15,20 L30,10 L15,0 Z" class="cell_A"/>
    <g s:x="28" s:y="10" s:pid="Y"/>
  </g>
  <g s:type="inputExt" transform="translate(12,622.5)" s:width="30" s:height="20" id="cell_B">
    <text x="15" y="-4" class="nodelabel cell_B" s:attribute="ref">B</text>
    <s:alias val="$_inputExt_"/>
    <path d="M0,0 L0,20 L15,20 L30,10 L15,0 Z" class="cell_B"/>
    <g s:x="28" s:y="10" s:pid="Y"/>
  </g>
  <g s:type="outputExt" transform="translate(621,974.5)" s:width="30" s:height="20" id="cell_C">
    <text x="15" y="-4" class="nodelabel cell_C" s:attribute="ref">C</text>
    <s:alias val="$_outputExt_"/>
    <path d="M30,0 L30,20 L15,20 L0,10 L15,0 Z" class="cell_C"/>
    <g s:x="0" s:y="10" s:pid="A"/>
  </g>
  <g s:type="join" transform="translate(578,964)" s:width="4" s:height="40" id="cell_$join$,18,19,20,21,22,23,24,25,">
    <rect width="5" height="160" class="splitjoinBody" s:generic="body"/>
    <s:alias val="$_join_"/>
    <g s:x="5" s:y="20" s:pid="out"/>
    <g transform="translate(0,10)" s:x="0" s:y="10" s:pid="in0">
      <text x="-3" y="-4" class="inputPortLabel">0</text>
    </g>
    <g transform="translate(0,30)" s:x="0" s:y="10" s:pid="in0">
      <text x="-3" y="-4" class="inputPortLabel">1</text>
    </g>
    <g transform="translate(0,50)" s:x="0" s:y="10" s:pid="in0">
      <text x="-3" y="-4" class="inputPortLabel">2</text>
    </g>
    <g transform="translate(0,70)" s:x="0" s:y="10" s:pid="in0">
      <text x="-3" y="-4" class="inputPortLabel">3</text>
    </g>
    <g transform="translate(0,90)" s:x="0" s:y="10" s:pid="in0">
      <text x="-3" y="-4" class="inputPortLabel">4</text>
    </g>
    <g transform="translate(0,110)" s:x="0" s:y="10" s:pid="in0">
      <text x="-3" y="-4" class="inputPortLabel">5</text>
    </g>
    <g transform="translate(0,130)" s:x="0" s:y="10" s:pid="in0">
      <text x="-3" y="-4" class="inputPortLabel">6</text>
    </g>
    <g transform="translate(0,150)" s:x="0" s:y="10" s:pid="in0">
      <text x="-3" y="-4" class="inputPortLabel">7</text>
    </g>
  </g>
  <g s:type="split" transform="translate(77,285)" s:width="5" s:height="40" id="cell_$split$,2,3,4,5,6,7,8,9,">
    <rect width="5" height="160" class="splitjoinBody" s:generic="body"/>
    <s:alias val="$_split_"/>
    <g s:x="0" s:y="20" s:pid="in"/>
    <g transform="translate(4,10)" s:x="4" s:y="10" s:pid="out0">
      <text x="5" y="-4">4</text>
    </g>
    <g transform="translate(4,30)" s:x="4" s:y="10" s:pid="out0">
      <text x="5" y="-4">5</text>
    </g>
    <g transform="translate(4,50)" s:x="4" s:y="10" s:pid="out0">
      <text x="5" y="-4">6</text>
    </g>
    <g transform="translate(4,70)" s:x="4" s:y="10" s:pid="out0">
      <text x="5" y="-4">7</text>
    </g>
    <g transform="translate(4,90)" s:x="4" s:y="10" s:pid="out0">
      <text x="5" y="-4">2</text>
    </g>
    <g transform="translate(4,110)" s:x="4" s:y="10" s:pid="out0">
      <text x="5" y="-4">3</text>
    </g>
    <g transform="translate(4,130)" s:x="4" s:y="10" s:pid="out0">
      <text x="5" y="-4">0</text>
    </g>
    <g transform="translate(4,150)" s:x="4" s:y="10" s:pid="out0">
      <text x="5" y="-4">1</text>
    </g>
  </g>
  <g s:type="split" transform="translate(77,612)" s:width="5" s:height="40" id="cell_$split$,10,11,12,13,14,15,16,17,">
    <rect width="5" height="160" class="splitjoinBody" s:generic="body"/>
    <s:alias val="$_split_"/>
    <g s:x="0" s:y="20" s:pid="in"/>
    <g transform="translate(4,10)" s:x="4" s:y="10" s:pid="out0">
      <text x="5" y="-4">2</text>
    </g>
    <g transform="translate(4,30)" s:x="4" s:y="10" s:pid="out0">
      <text x="5" y="-4">4</text>
    </g>
    <g transform="translate(4,50)" s:x="4" s:y="10" s:pid="out0">
      <text x="5" y="-4">0</text>
    </g>
    <g transform="translate(4,70)" s:x="4" s:y="10" s:pid="out0">
      <text x="5" y="-4">6</text>
    </g>
    <g transform="translate(4,90)" s:x="4" s:y="10" s:pid="out0">
      <text x="5" y="-4">7</text>
    </g>
    <g transform="translate(4,110)" s:x="4" s:y="10" s:pid="out0">
      <text x="5" y="-4">3</text>
    </g>
    <g transform="translate(4,130)" s:x="4" s:y="10" s:pid="out0">
      <text x="5" y="-4">5</text>
    </g>
    <g transform="translate(4,150)" s:x="4" s:y="10" s:pid="out0">
      <text x="5" y="-4">1</text>
    </g>
  </g>
  <line x1="81.5" x2="81.5" y1="295" y2="273" class="net_6"/>
  <line x1="81.5" x2="129" y1="273" y2="273" class="net_6"/>
  <line x1="129" x2="129" y1="273" y2="1094.5" class="net_6"/>
  <circle cx="129" cy="1094.5" r="2" style="fill:#000" class="net_6"/>
  <line x1="129" x2="325" y1="1094.5" y2="1094.5" class="net_6"/>
  <line x1="81.5" x2="81.5" y1="295" y2="273" class="net_6"/>
  <line x1="81.5" x2="129" y1="273" y2="273" class="net_6"/>
  <line x1="129" x2="129" y1="273" y2="891" class="net_6"/>
  <circle cx="129" cy="891" r="2" style="fill:#000" class="net_6"/>
  <line x1="129" x2="325" y1="891" y2="891" class="net_6"/>
  <line x1="81.5" x2="81.5" y1="295" y2="273" class="net_6"/>
  <line x1="81.5" x2="129" y1="273" y2="273" class="net_6"/>
  <line x1="129" x2="129" y1="273" y2="1185.5" class="net_6"/>
  <line x1="129" x2="259" y1="1185.5" y2="1185.5" class="net_6"/>
  <line x1="81.5" x2="81.5" y1="295" y2="273" class="net_6"/>
  <line x1="81.5" x2="129" y1="273" y2="273" class="net_6"/>
  <line x1="129" x2="129" y1="273" y2="838.5" class="net_6"/>
  <circle cx="129" cy="838.5" r="2" style="fill:#000" class="net_6"/>
  <line x1="129" x2="259" y1="838.5" y2="838.5" class="net_6"/>
  <line x1="81.5" x2="81.5" y1="622" y2="582.5" class="net_12"/>
  <line x1="81.5" x2="179" y1="582.5" y2="582.5" class="net_12"/>
  <line x1="179" x2="179" y1="582.5" y2="1109.5" class="net_12"/>
  <circle cx="179" cy="582.5" r="2" style="fill:#000" class="net_12"/>
  <circle cx="179" cy="1109.5" r="2" style="fill:#000" class="net_12"/>
  <line x1="179" x2="325" y1="1109.5" y2="1109.5" class="net_12"/>
  <line x1="81.5" x2="81.5" y1="622" y2="582.5" class="net_12"/>
  <line x1="81.5" x2="179" y1="582.5" y2="582.5" class="net_12"/>
  <line x1="179" x2="179" y1="582.5" y2="1140.5" class="net_12"/>
  <line x1="179" x2="259" y1="1140.5" y2="1140.5" class="net_12"/>
  <line x1="81.5" x2="81.5" y1="622" y2="582.5" class="net_12"/>
  <line x1="81.5" x2="325" y1="582.5" y2="582.5" class="net_12"/>
  <line x1="81.5" x2="81.5" y1="622" y2="582.5" class="net_12"/>
  <line x1="81.5" x2="179" y1="582.5" y2="582.5" class="net_12"/>
  <line x1="179" x2="179" y1="582.5" y2="470" class="net_12"/>
  <line x1="179" x2="259" y1="470" y2="470" class="net_12"/>
  <line x1="82" x2="109" y1="315.5" y2="315.5" class="net_7"/>
  <line x1="109" x2="109" y1="315.5" y2="1125.5" class="net_7"/>
  <line x1="109" x2="259" y1="1125.5" y2="1125.5" class="net_7"/>
  <line x1="82" x2="109" y1="315.5" y2="315.5" class="net_7"/>
  <line x1="109" x2="109" y1="315.5" y2="778.5" class="net_7"/>
  <circle cx="109" cy="778.5" r="2" style="fill:#000" class="net_7"/>
  <line x1="109" x2="259" y1="778.5" y2="778.5" class="net_7"/>
  <line x1="82" x2="189" y1="335.5" y2="335.5" class="net_8"/>
  <line x1="189" x2="189" y1="335.5" y2="627.5" class="net_8"/>
  <circle cx="189" cy="627.5" r="2" style="fill:#000" class="net_8"/>
  <line x1="189" x2="325" y1="627.5" y2="627.5" class="net_8"/>
  <line x1="82" x2="189" y1="335.5" y2="335.5" class="net_8"/>
  <line x1="189" x2="189" y1="335.5" y2="982" class="net_8"/>
  <line x1="189" x2="259" y1="982" y2="982" class="net_8"/>
  <line x1="82" x2="189" y1="335.5" y2="335.5" class="net_8"/>
  <line x1="189" x2="189" y1="335.5" y2="951" class="net_8"/>
  <circle cx="189" cy="951" r="2" style="fill:#000" class="net_8"/>
  <line x1="189" x2="325" y1="951" y2="951" class="net_8"/>
  <line x1="82" x2="189" y1="335.5" y2="335.5" class="net_8"/>
  <line x1="189" x2="189" y1="335.5" y2="718.5" class="net_8"/>
  <circle cx="189" cy="718.5" r="2" style="fill:#000" class="net_8"/>
  <line x1="189" x2="259" y1="718.5" y2="718.5" class="net_8"/>
  <line x1="82" x2="325" y1="642.5" y2="642.5" class="net_14"/>
  <line x1="82" x2="169" y1="642.5" y2="642.5" class="net_14"/>
  <line x1="169" x2="169" y1="642.5" y2="673.5" class="net_14"/>
  <circle cx="169" cy="642.5" r="2" style="fill:#000" class="net_14"/>
  <line x1="169" x2="259" y1="673.5" y2="673.5" class="net_14"/>
  <line x1="82" x2="169" y1="642.5" y2="642.5" class="net_14"/>
  <line x1="169" x2="169" y1="642.5" y2="32" class="net_14"/>
  <line x1="169" x2="325" y1="32" y2="32" class="net_14"/>
  <line x1="82" x2="169" y1="642.5" y2="642.5" class="net_14"/>
  <line x1="169" x2="169" y1="642.5" y2="63" class="net_14"/>
  <circle cx="169" cy="63" r="2" style="fill:#000" class="net_14"/>
  <line x1="169" x2="259" y1="63" y2="63" class="net_14"/>
  <line x1="82" x2="119" y1="355.5" y2="355.5" class="net_9"/>
  <line x1="119" x2="119" y1="355.5" y2="658.5" class="net_9"/>
  <circle cx="119" cy="658.5" r="2" style="fill:#000" class="net_9"/>
  <line x1="119" x2="259" y1="658.5" y2="658.5" class="net_9"/>
  <line x1="82" x2="119" y1="355.5" y2="355.5" class="net_9"/>
  <line x1="119" x2="119" y1="355.5" y2="1042" class="net_9"/>
  <line x1="119" x2="259" y1="1042" y2="1042" class="net_9"/>
  <line x1="82" x2="219" y1="662.5" y2="662.5" class="net_10"/>
  <line x1="219" x2="219" y1="662.5" y2="906" class="net_10"/>
  <circle cx="219" cy="662.5" r="2" style="fill:#000" class="net_10"/>
  <line x1="219" x2="325" y1="906" y2="906" class="net_10"/>
  <line x1="82" x2="219" y1="662.5" y2="662.5" class="net_10"/>
  <line x1="219" x2="219" y1="662.5" y2="793.5" class="net_10"/>
  <circle cx="219" cy="793.5" r="2" style="fill:#000" class="net_10"/>
  <line x1="219" x2="259" y1="793.5" y2="793.5" class="net_10"/>
  <line x1="82" x2="219" y1="662.5" y2="662.5" class="net_10"/>
  <line x1="219" x2="219" y1="662.5" y2="175.5" class="net_10"/>
  <line x1="219" x2="325" y1="175.5" y2="175.5" class="net_10"/>
  <line x1="82" x2="219" y1="662.5" y2="662.5" class="net_10"/>
  <line x1="219" x2="219" y1="662.5" y2="206.5" class="net_10"/>
  <circle cx="219" cy="206.5" r="2" style="fill:#000" class="net_10"/>
  <line x1="219" x2="259" y1="206.5" y2="206.5" class="net_10"/>
  <line x1="82" x2="199" y1="375.5" y2="375.5" class="net_4"/>
  <line x1="199" x2="199" y1="375.5" y2="424" class="net_4"/>
  <circle cx="199" cy="375.5" r="2" style="fill:#000" class="net_4"/>
  <line x1="199" x2="325" y1="424" y2="424" class="net_4"/>
  <line x1="82" x2="199" y1="375.5" y2="375.5" class="net_4"/>
  <line x1="199" x2="199" y1="375.5" y2="17" class="net_4"/>
  <line x1="199" x2="325" y1="17" y2="17" class="net_4"/>
  <line x1="82" x2="199" y1="375.5" y2="375.5" class="net_4"/>
  <line x1="199" x2="199" y1="375.5" y2="371.5" class="net_4"/>
  <circle cx="199" cy="371.5" r="2" style="fill:#000" class="net_4"/>
  <line x1="199" x2="259" y1="371.5" y2="371.5" class="net_4"/>
  <line x1="82" x2="199" y1="375.5" y2="375.5" class="net_4"/>
  <line x1="199" x2="199" y1="375.5" y2="108" class="net_4"/>
  <circle cx="199" cy="108" r="2" style="fill:#000" class="net_4"/>
  <line x1="199" x2="259" y1="108" y2="108" class="net_4"/>
  <line x1="82" x2="249" y1="682.5" y2="682.5" class="net_16"/>
  <line x1="249" x2="249" y1="682.5" y2="439" class="net_16"/>
  <circle cx="249" cy="682.5" r="2" style="fill:#000" class="net_16"/>
  <circle cx="249" cy="439" r="2" style="fill:#000" class="net_16"/>
  <line x1="249" x2="325" y1="439" y2="439" class="net_16"/>
  <line x1="82" x2="249" y1="682.5" y2="682.5" class="net_16"/>
  <line x1="249" x2="249" y1="682.5" y2="326.5" class="net_16"/>
  <line x1="249" x2="259" y1="326.5" y2="326.5" class="net_16"/>
  <line x1="82" x2="249" y1="682.5" y2="682.5" class="net_16"/>
  <line x1="249" x2="249" y1="682.5" y2="966" class="net_16"/>
  <circle cx="249" cy="966" r="2" style="fill:#000" class="net_16"/>
  <line x1="249" x2="325" y1="966" y2="966" class="net_16"/>
  <line x1="82" x2="249" y1="682.5" y2="682.5" class="net_16"/>
  <line x1="249" x2="249" y1="682.5" y2="1057" class="net_16"/>
  <line x1="249" x2="259" y1="1057" y2="1057" class="net_16"/>
  <line x1="82" x2="139" y1="395.5" y2="395.5" class="net_5"/>
  <line x1="139" x2="139" y1="395.5" y2="311.5" class="net_5"/>
  <circle cx="139" cy="311.5" r="2" style="fill:#000" class="net_5"/>
  <line x1="139" x2="259" y1="311.5" y2="311.5" class="net_5"/>
  <line x1="82" x2="139" y1="395.5" y2="395.5" class="net_5"/>
  <line x1="139" x2="139" y1="395.5" y2="48" class="net_5"/>
  <line x1="139" x2="259" y1="48" y2="48" class="net_5"/>
  <line x1="82" x2="209" y1="415.5" y2="415.5" class="net_2"/>
  <line x1="209" x2="209" y1="415.5" y2="567.5" class="net_2"/>
  <circle cx="209" cy="415.5" r="2" style="fill:#000" class="net_2"/>
  <line x1="209" x2="325" y1="567.5" y2="567.5" class="net_2"/>
  <line x1="82" x2="209" y1="415.5" y2="415.5" class="net_2"/>
  <line x1="209" x2="209" y1="415.5" y2="160.5" class="net_2"/>
  <line x1="209" x2="325" y1="160.5" y2="160.5" class="net_2"/>
  <line x1="82" x2="209" y1="415.5" y2="415.5" class="net_2"/>
  <line x1="209" x2="209" y1="415.5" y2="515" class="net_2"/>
  <circle cx="209" cy="515" r="2" style="fill:#000" class="net_2"/>
  <line x1="209" x2="259" y1="515" y2="515" class="net_2"/>
  <line x1="82" x2="209" y1="415.5" y2="415.5" class="net_2"/>
  <line x1="209" x2="209" y1="415.5" y2="251.5" class="net_2"/>
  <circle cx="209" cy="251.5" r="2" style="fill:#000" class="net_2"/>
  <line x1="209" x2="259" y1="251.5" y2="251.5" class="net_2"/>
  <line x1="81.5" x2="81.5" y1="436" y2="455" class="net_3"/>
  <line x1="81.5" x2="259" y1="455" y2="455" class="net_3"/>
  <line x1="81.5" x2="81.5" y1="436" y2="455" class="net_3"/>
  <line x1="81.5" x2="229" y1="455" y2="455" class="net_3"/>
  <line x1="229" x2="229" y1="455" y2="191.5" class="net_3"/>
  <circle cx="229" cy="455" r="2" style="fill:#000" class="net_3"/>
  <line x1="229" x2="259" y1="191.5" y2="191.5" class="net_3"/>
  <line x1="450" x2="460" y1="1178" y2="1178" class="net_40"/>
  <line x1="460" x2="460" y1="1178" y2="1223" class="net_40"/>
  <line x1="460" x2="488" y1="1223" y2="1223" class="net_40"/>
  <line x1="448" x2="488" y1="1238" y2="1238" class="net_41"/>
  <line x1="355" x2="460" y1="958.5" y2="958.5" class="net_42"/>
  <line x1="460" x2="460" y1="958.5" y2="1087" class="net_42"/>
  <line x1="460" x2="488" y1="1087" y2="1087" class="net_42"/>
  <line x1="355" x2="387" y1="958.5" y2="958.5" class="net_42"/>
  <line x1="387" x2="387" y1="958.5" y2="1230.5" class="net_42"/>
  <circle cx="387" cy="958.5" r="2" style="fill:#000" class="net_42"/>
  <line x1="387" x2="418" y1="1230.5" y2="1230.5" class="net_42"/>
  <line x1="355" x2="488" y1="1102" y2="1102" class="net_26"/>
  <line x1="355" x2="367" y1="1102" y2="1102" class="net_26"/>
  <line x1="367" x2="367" y1="1102" y2="1245.5" class="net_26"/>
  <circle cx="367" cy="1102" r="2" style="fill:#000" class="net_26"/>
  <line x1="367" x2="418" y1="1245.5" y2="1245.5" class="net_26"/>
  <line x1="357" x2="377" y1="1042" y2="1042" class="net_43"/>
  <line x1="377" x2="377" y1="1042" y2="1170.5" class="net_43"/>
  <line x1="377" x2="420" y1="1170.5" y2="1170.5" class="net_43"/>
  <line x1="357" x2="420" y1="1185.5" y2="1185.5" class="net_44"/>
  <line x1="450" x2="460" y1="831" y2="831" class="net_45"/>
  <line x1="460" x2="460" y1="831" y2="876" class="net_45"/>
  <line x1="460" x2="488" y1="876" y2="876" class="net_45"/>
  <line x1="448" x2="488" y1="891" y2="891" class="net_46"/>
  <line x1="355" x2="460" y1="635" y2="635" class="net_28"/>
  <line x1="460" x2="460" y1="635" y2="792.5" class="net_28"/>
  <line x1="460" x2="488" y1="792.5" y2="792.5" class="net_28"/>
  <line x1="355" x2="387" y1="635" y2="635" class="net_28"/>
  <line x1="387" x2="387" y1="635" y2="883.5" class="net_28"/>
  <circle cx="387" cy="635" r="2" style="fill:#000" class="net_28"/>
  <line x1="387" x2="418" y1="883.5" y2="883.5" class="net_28"/>
  <line x1="355" x2="367" y1="898.5" y2="898.5" class="net_30"/>
  <line x1="367" x2="367" y1="898.5" y2="807.5" class="net_30"/>
  <circle cx="367" cy="898.5" r="2" style="fill:#000" class="net_30"/>
  <line x1="367" x2="488" y1="807.5" y2="807.5" class="net_30"/>
  <line x1="355" x2="418" y1="898.5" y2="898.5" class="net_30"/>
  <line x1="357" x2="377" y1="718.5" y2="718.5" class="net_47"/>
  <line x1="377" x2="377" y1="718.5" y2="823.5" class="net_47"/>
  <line x1="377" x2="420" y1="823.5" y2="823.5" class="net_47"/>
  <line x1="357" x2="420" y1="838.5" y2="838.5" class="net_48"/>
  <line x1="450" x2="460" y1="507.5" y2="507.5" class="net_49"/>
  <line x1="460" x2="460" y1="507.5" y2="552.5" class="net_49"/>
  <line x1="460" x2="488" y1="552.5" y2="552.5" class="net_49"/>
  <line x1="448" x2="488" y1="567.5" y2="567.5" class="net_50"/>
  <line x1="355" x2="460" y1="431.5" y2="431.5" class="net_32"/>
  <line x1="460" x2="460" y1="431.5" y2="469" class="net_32"/>
  <line x1="460" x2="488" y1="469" y2="469" class="net_32"/>
  <line x1="355" x2="367" y1="431.5" y2="431.5" class="net_32"/>
  <line x1="367" x2="367" y1="431.5" y2="560" class="net_32"/>
  <circle cx="367" cy="431.5" r="2" style="fill:#000" class="net_32"/>
  <line x1="367" x2="418" y1="560" y2="560" class="net_32"/>
  <line x1="355" x2="387" y1="575" y2="575" class="net_34"/>
  <line x1="387" x2="387" y1="575" y2="484" class="net_34"/>
  <circle cx="387" cy="575" r="2" style="fill:#000" class="net_34"/>
  <line x1="387" x2="488" y1="484" y2="484" class="net_34"/>
  <line x1="355" x2="418" y1="575" y2="575" class="net_34"/>
  <line x1="357" x2="377" y1="371.5" y2="371.5" class="net_51"/>
  <line x1="377" x2="377" y1="371.5" y2="500" class="net_51"/>
  <line x1="377" x2="420" y1="500" y2="500" class="net_51"/>
  <line x1="357" x2="420" y1="515" y2="515" class="net_52"/>
  <line x1="82" x2="159" y1="702.5" y2="702.5" class="net_17"/>
  <line x1="159" x2="159" y1="702.5" y2="997" class="net_17"/>
  <circle cx="159" cy="702.5" r="2" style="fill:#000" class="net_17"/>
  <line x1="159" x2="259" y1="997" y2="997" class="net_17"/>
  <line x1="82" x2="159" y1="702.5" y2="702.5" class="net_17"/>
  <line x1="159" x2="159" y1="702.5" y2="386.5" class="net_17"/>
  <line x1="159" x2="259" y1="386.5" y2="386.5" class="net_17"/>
  <line x1="450" x2="460" y1="244" y2="244" class="net_55"/>
  <line x1="460" x2="460" y1="244" y2="394" class="net_55"/>
  <line x1="460" x2="488" y1="394" y2="394" class="net_55"/>
  <line x1="448" x2="488" y1="409" y2="409" class="net_56"/>
  <line x1="355" x2="460" y1="24.5" y2="24.5" class="net_36"/>
  <line x1="460" x2="460" y1="24.5" y2="153" class="net_36"/>
  <line x1="460" x2="488" y1="153" y2="153" class="net_36"/>
  <line x1="355" x2="407" y1="24.5" y2="24.5" class="net_36"/>
  <line x1="407" x2="407" y1="24.5" y2="401.5" class="net_36"/>
  <circle cx="407" cy="24.5" r="2" style="fill:#000" class="net_36"/>
  <line x1="407" x2="418" y1="401.5" y2="401.5" class="net_36"/>
  <line x1="355" x2="488" y1="168" y2="168" class="net_38"/>
  <line x1="355" x2="387" y1="168" y2="168" class="net_38"/>
  <line x1="387" x2="387" y1="168" y2="416.5" class="net_38"/>
  <circle cx="387" cy="168" r="2" style="fill:#000" class="net_38"/>
  <line x1="387" x2="418" y1="416.5" y2="416.5" class="net_38"/>
  <line x1="357" x2="397" y1="108" y2="108" class="net_57"/>
  <line x1="397" x2="397" y1="108" y2="236.5" class="net_57"/>
  <line x1="397" x2="420" y1="236.5" y2="236.5" class="net_57"/>
  <line x1="357" x2="420" y1="251.5" y2="251.5" class="net_58"/>
  <line x1="82" x2="99" y1="722.5" y2="722.5" class="net_13"/>
  <line x1="99" x2="99" y1="722.5" y2="1200.5" class="net_13"/>
  <circle cx="99" cy="722.5" r="2" style="fill:#000" class="net_13"/>
  <line x1="99" x2="259" y1="1200.5" y2="1200.5" class="net_13"/>
  <line x1="82" x2="99" y1="722.5" y2="722.5" class="net_13"/>
  <line x1="99" x2="99" y1="722.5" y2="530" class="net_13"/>
  <line x1="99" x2="259" y1="530" y2="530" class="net_13"/>
  <line x1="82" x2="149" y1="742.5" y2="742.5" class="net_15"/>
  <line x1="149" x2="149" y1="742.5" y2="733.5" class="net_15"/>
  <circle cx="149" cy="733.5" r="2" style="fill:#000" class="net_15"/>
  <line x1="149" x2="259" y1="733.5" y2="733.5" class="net_15"/>
  <line x1="82" x2="149" y1="742.5" y2="742.5" class="net_15"/>
  <line x1="149" x2="149" y1="742.5" y2="123" class="net_15"/>
  <line x1="149" x2="259" y1="123" y2="123" class="net_15"/>
  <line x1="81.5" x2="81.5" y1="763" y2="853.5" class="net_11"/>
  <line x1="81.5" x2="259" y1="853.5" y2="853.5" class="net_11"/>
  <line x1="81.5" x2="81.5" y1="763" y2="853.5" class="net_11"/>
  <line x1="81.5" x2="239" y1="853.5" y2="853.5" class="net_11"/>
  <line x1="239" x2="239" y1="853.5" y2="266.5" class="net_11"/>
  <circle cx="239" cy="853.5" r="2" style="fill:#000" class="net_11"/>
  <line x1="239" x2="259" y1="266.5" y2="266.5" class="net_11"/>
  <line x1="289" x2="299" y1="989.5" y2="989.5" class="net_53"/>
  <line x1="299" x2="299" y1="989.5" y2="1034.5" class="net_53"/>
  <line x1="299" x2="327" y1="1034.5" y2="1034.5" class="net_53"/>
  <line x1="289" x2="327" y1="1049.5" y2="1049.5" class="net_54"/>
  <line x1="289" x2="299" y1="1133" y2="1133" class="net_27"/>
  <line x1="299" x2="299" y1="1133" y2="1178" class="net_27"/>
  <line x1="299" x2="327" y1="1178" y2="1178" class="net_27"/>
  <line x1="289" x2="327" y1="1193" y2="1193" class="net_59"/>
  <line x1="289" x2="299" y1="666" y2="666" class="net_29"/>
  <line x1="299" x2="299" y1="666" y2="711" class="net_29"/>
  <line x1="299" x2="327" y1="711" y2="711" class="net_29"/>
  <line x1="289" x2="327" y1="726" y2="726" class="net_60"/>
  <line x1="289" x2="299" y1="786" y2="786" class="net_31"/>
  <line x1="299" x2="299" y1="786" y2="831" class="net_31"/>
  <line x1="299" x2="327" y1="831" y2="831" class="net_31"/>
  <line x1="289" x2="327" y1="846" y2="846" class="net_61"/>
  <line x1="289" x2="299" y1="319" y2="319" class="net_33"/>
  <line x1="299" x2="299" y1="319" y2="364" class="net_33"/>
  <line x1="299" x2="327" y1="364" y2="364" class="net_33"/>
  <line x1="289" x2="327" y1="379" y2="379" class="net_62"/>
  <line x1="289" x2="299" y1="462.5" y2="462.5" class="net_35"/>
  <line x1="299" x2="299" y1="462.5" y2="507.5" class="net_35"/>
  <line x1="299" x2="327" y1="507.5" y2="507.5" class="net_35"/>
  <line x1="289" x2="327" y1="522.5" y2="522.5" class="net_63"/>
  <line x1="289" x2="299" y1="55.5" y2="55.5" class="net_37"/>
  <line x1="299" x2="299" y1="55.5" y2="100.5" class="net_37"/>
  <line x1="299" x2="327" y1="100.5" y2="100.5" class="net_37"/>
  <line x1="289" x2="327" y1="115.5" y2="115.5" class="net_64"/>
  <line x1="289" x2="299" y1="199" y2="199" class="net_39"/>
  <line x1="299" x2="299" y1="199" y2="244" class="net_39"/>
  <line x1="299" x2="327" y1="244" y2="244" class="net_39"/>
  <line x1="289" x2="327" y1="259" y2="259" class="net_65"/>
  <line x1="584" x2="621" y1="984.5" y2="984.5" class="net_18,19,20,21,22,23,24,25"/>
  <line x1="518" x2="578.5" y1="160.5" y2="160.5" class="net_18"/>
  <line x1="578.5" x2="578.5" y1="160.5" y2="974" class="net_18"/>
  <line x1="518" x2="568" y1="401.5" y2="401.5" class="net_19"/>
  <line x1="568" x2="568" y1="401.5" y2="994.5" class="net_19"/>
  <line x1="568" x2="578" y1="994.5" y2="994.5" class="net_19"/>
  <line x1="518" x2="558" y1="476.5" y2="476.5" class="net_20"/>
  <line x1="558" x2="558" y1="476.5" y2="1014.5" class="net_20"/>
  <line x1="558" x2="578" y1="1014.5" y2="1014.5" class="net_20"/>
  <line x1="518" x2="548" y1="560" y2="560" class="net_21"/>
  <line x1="548" x2="548" y1="560" y2="1034.5" class="net_21"/>
  <line x1="548" x2="578" y1="1034.5" y2="1034.5" class="net_21"/>
  <line x1="518" x2="538" y1="800" y2="800" class="net_22"/>
  <line x1="538" x2="538" y1="800" y2="1054.5" class="net_22"/>
  <line x1="538" x2="578" y1="1054.5" y2="1054.5" class="net_22"/>
  <line x1="518" x2="528" y1="883.5" y2="883.5" class="net_23"/>
  <line x1="528" x2="528" y1="883.5" y2="1074.5" class="net_23"/>
  <line x1="528" x2="578" y1="1074.5" y2="1074.5" class="net_23"/>
  <line x1="518" x2="578" y1="1094.5" y2="1094.5" class="net_24"/>
  <line x1="518" x2="578.5" y1="1230.5" y2="1230.5" class="net_25"/>
  <line x1="578.5" x2="578.5" y1="1230.5" y2="1115" class="net_25"/>
  <line x1="40" x2="77" y1="305.5" y2="305.5" class="net_2,3,4,5,6,7,8,9"/>
  <line x1="40" x2="77" y1="632.5" y2="632.5" class="net_10,11,12,13,14,15,16,17"/>
</svg>
