M48
; DRILL file {KiCad 9.0.3} date 2025-08-17T12:55:35+1000
; FORMAT={-:-/ absolute / metric / decimal}
; #@! TF.CreationDate,2025-08-17T12:55:35+10:00
; #@! TF.GenerationSoftware,Kicad,Pcbnew,9.0.3
; #@! TF.FileFunction,MixedPlating,1,2
FMAT,2
METRIC
; #@! TA.AperFunction,Plated,PTH,ComponentDrill
T1C1.000
%
G90
G05
T1
X117.54Y-46.24
X117.54Y-48.78
X117.54Y-51.32
X117.54Y-53.86
X117.54Y-56.4
X117.54Y-58.94
X117.54Y-61.48
X117.54Y-64.02
X117.54Y-66.56
X117.54Y-69.1
X117.54Y-71.64
X117.54Y-74.18
X117.54Y-76.72
X117.54Y-79.26
X117.54Y-81.8
X117.54Y-84.34
X117.54Y-86.88
X117.54Y-89.42
X117.54Y-91.96
X117.54Y-94.5
X120.08Y-46.24
X120.08Y-48.78
X120.08Y-51.32
X120.08Y-53.86
X120.08Y-56.4
X120.08Y-58.94
X120.08Y-61.48
X120.08Y-64.02
X120.08Y-66.56
X120.08Y-69.1
X120.08Y-71.64
X120.08Y-74.18
X120.08Y-76.72
X120.08Y-79.26
X120.08Y-81.8
X120.08Y-84.34
X120.08Y-86.88
X120.08Y-89.42
X120.08Y-91.96
X120.08Y-94.5
X124.68Y-46.24
X124.68Y-48.78
X124.68Y-51.32
X124.68Y-53.86
X124.68Y-56.4
X124.68Y-58.94
X124.68Y-61.48
X124.68Y-64.02
X124.68Y-66.56
X124.68Y-69.1
X124.68Y-71.64
X124.68Y-74.18
X124.68Y-76.72
X124.68Y-79.26
X124.68Y-81.8
X124.68Y-84.34
X124.68Y-86.88
X124.68Y-89.42
X124.68Y-91.96
X124.68Y-94.5
X127.22Y-46.24
X127.22Y-48.78
X127.22Y-51.32
X127.22Y-53.86
X127.22Y-56.4
X127.22Y-58.94
X127.22Y-61.48
X127.22Y-64.02
X127.22Y-66.56
X127.22Y-69.1
X127.22Y-71.64
X127.22Y-74.18
X127.22Y-76.72
X127.22Y-79.26
X127.22Y-81.8
X127.22Y-84.34
X127.22Y-86.88
X127.22Y-89.42
X127.22Y-91.96
X127.22Y-94.5
X131.82Y-46.24
X131.82Y-48.78
X131.82Y-51.32
X131.82Y-53.86
X131.82Y-56.4
X131.82Y-58.94
X131.82Y-61.48
X131.82Y-64.02
X131.82Y-66.56
X131.82Y-69.1
X131.82Y-71.64
X131.82Y-74.18
X131.82Y-76.72
X131.82Y-79.26
X131.82Y-81.8
X131.82Y-84.34
X131.82Y-86.88
X131.82Y-89.42
X131.82Y-91.96
X131.82Y-94.5
X134.36Y-46.24
X134.36Y-48.78
X134.36Y-51.32
X134.36Y-53.86
X134.36Y-56.4
X134.36Y-58.94
X134.36Y-61.48
X134.36Y-64.02
X134.36Y-66.56
X134.36Y-69.1
X134.36Y-71.64
X134.36Y-74.18
X134.36Y-76.72
X134.36Y-79.26
X134.36Y-81.8
X134.36Y-84.34
X134.36Y-86.88
X134.36Y-89.42
X134.36Y-91.96
X134.36Y-94.5
X138.46Y-46.24
X138.46Y-48.78
X138.46Y-51.32
X138.46Y-53.86
X138.46Y-56.4
X138.46Y-58.94
X138.46Y-61.48
X138.46Y-64.02
X138.46Y-66.56
X138.46Y-69.1
X138.46Y-71.64
X138.46Y-74.18
X138.46Y-76.72
X138.46Y-79.26
X138.46Y-81.8
X138.46Y-84.34
X138.46Y-86.88
X138.46Y-89.42
X138.46Y-91.96
X138.46Y-94.5
X141.0Y-46.24
X141.0Y-48.78
X141.0Y-51.32
X141.0Y-53.86
X141.0Y-56.4
X141.0Y-58.94
X141.0Y-61.48
X141.0Y-64.02
X141.0Y-66.56
X141.0Y-69.1
X141.0Y-71.64
X141.0Y-74.18
X141.0Y-76.72
X141.0Y-79.26
X141.0Y-81.8
X141.0Y-84.34
X141.0Y-86.88
X141.0Y-89.42
X141.0Y-91.96
X141.0Y-94.5
M30
