%TF.GenerationSoftware,KiCad,Pcbnew,9.0.3*%
%TF.CreationDate,2025-08-17T12:54:53+10:00*%
%TF.ProjectId,auto,6175746f-2e6b-4696-9361-645f70636258,rev?*%
%TF.SameCoordinates,Original*%
%TF.FileFunction,Paste,Top*%
%TF.FilePolarity,Positive*%
%FSLAX46Y46*%
G04 Gerber Fmt 4.6, Leading zero omitted, Abs format (unit mm)*
G04 Created by KiCad (PCBNEW 9.0.3) date 2025-08-17 12:54:53*
%MOMM*%
%LPD*%
G01*
G04 APERTURE LIST*
G04 Aperture macros list*
%AMRoundRect*
0 Rectangle with rounded corners*
0 $1 Rounding radius*
0 $2 $3 $4 $5 $6 $7 $8 $9 X,Y pos of 4 corners*
0 Add a 4 corners polygon primitive as box body*
4,1,4,$2,$3,$4,$5,$6,$7,$8,$9,$2,$3,0*
0 Add four circle primitives for the rounded corners*
1,1,$1+$1,$2,$3*
1,1,$1+$1,$4,$5*
1,1,$1+$1,$6,$7*
1,1,$1+$1,$8,$9*
0 Add four rect primitives between the rounded corners*
20,1,$1+$1,$2,$3,$4,$5,0*
20,1,$1+$1,$4,$5,$6,$7,0*
20,1,$1+$1,$6,$7,$8,$9,0*
20,1,$1+$1,$8,$9,$2,$3,0*%
G04 Aperture macros list end*
%ADD10RoundRect,0.225000X-0.225000X-0.250000X0.225000X-0.250000X0.225000X0.250000X-0.225000X0.250000X0*%
%ADD11RoundRect,0.075000X-0.725000X-0.075000X0.725000X-0.075000X0.725000X0.075000X-0.725000X0.075000X0*%
%ADD12RoundRect,0.075000X-0.075000X-0.725000X0.075000X-0.725000X0.075000X0.725000X-0.075000X0.725000X0*%
G04 APERTURE END LIST*
D10*
%TO.C,C2*%
X143725000Y-66980000D03*
X145275000Y-66980000D03*
%TD*%
%TO.C,C1*%
X143725000Y-64470000D03*
X145275000Y-64470000D03*
%TD*%
%TO.C,C3*%
X143725000Y-69490000D03*
X145275000Y-69490000D03*
%TD*%
%TO.C,C1_2*%
X143725000Y-74510000D03*
X145275000Y-74510000D03*
%TD*%
D11*
%TO.C,U1*%
X144000000Y-47500000D03*
X144000000Y-48000000D03*
X144000000Y-48500000D03*
X144000000Y-49000000D03*
X144000000Y-49500000D03*
X144000000Y-50000000D03*
X144000000Y-50500000D03*
X144000000Y-51000000D03*
X144000000Y-51500000D03*
X144000000Y-52000000D03*
X144000000Y-52500000D03*
X144000000Y-53000000D03*
X144000000Y-53500000D03*
X144000000Y-54000000D03*
X144000000Y-54500000D03*
X144000000Y-55000000D03*
X144000000Y-55500000D03*
X144000000Y-56000000D03*
X144000000Y-56500000D03*
X144000000Y-57000000D03*
X144000000Y-57500000D03*
X144000000Y-58000000D03*
X144000000Y-58500000D03*
X144000000Y-59000000D03*
X144000000Y-59500000D03*
D12*
X145675000Y-61175000D03*
X146175000Y-61175000D03*
X146675000Y-61175000D03*
X147175000Y-61175000D03*
X147675000Y-61175000D03*
X148175000Y-61175000D03*
X148675000Y-61175000D03*
X149175000Y-61175000D03*
X149675000Y-61175000D03*
X150175000Y-61175000D03*
X150675000Y-61175000D03*
X151175000Y-61175000D03*
X151675000Y-61175000D03*
X152175000Y-61175000D03*
X152675000Y-61175000D03*
X153175000Y-61175000D03*
X153675000Y-61175000D03*
X154175000Y-61175000D03*
X154675000Y-61175000D03*
X155175000Y-61175000D03*
X155675000Y-61175000D03*
X156175000Y-61175000D03*
X156675000Y-61175000D03*
X157175000Y-61175000D03*
X157675000Y-61175000D03*
D11*
X159350000Y-59500000D03*
X159350000Y-59000000D03*
X159350000Y-58500000D03*
X159350000Y-58000000D03*
X159350000Y-57500000D03*
X159350000Y-57000000D03*
X159350000Y-56500000D03*
X159350000Y-56000000D03*
X159350000Y-55500000D03*
X159350000Y-55000000D03*
X159350000Y-54500000D03*
X159350000Y-54000000D03*
X159350000Y-53500000D03*
X159350000Y-53000000D03*
X159350000Y-52500000D03*
X159350000Y-52000000D03*
X159350000Y-51500000D03*
X159350000Y-51000000D03*
X159350000Y-50500000D03*
X159350000Y-50000000D03*
X159350000Y-49500000D03*
X159350000Y-49000000D03*
X159350000Y-48500000D03*
X159350000Y-48000000D03*
X159350000Y-47500000D03*
D12*
X157675000Y-45825000D03*
X157175000Y-45825000D03*
X156675000Y-45825000D03*
X156175000Y-45825000D03*
X155675000Y-45825000D03*
X155175000Y-45825000D03*
X154675000Y-45825000D03*
X154175000Y-45825000D03*
X153675000Y-45825000D03*
X153175000Y-45825000D03*
X152675000Y-45825000D03*
X152175000Y-45825000D03*
X151675000Y-45825000D03*
X151175000Y-45825000D03*
X150675000Y-45825000D03*
X150175000Y-45825000D03*
X149675000Y-45825000D03*
X149175000Y-45825000D03*
X148675000Y-45825000D03*
X148175000Y-45825000D03*
X147675000Y-45825000D03*
X147175000Y-45825000D03*
X146675000Y-45825000D03*
X146175000Y-45825000D03*
X145675000Y-45825000D03*
%TD*%
D10*
%TO.C,C1_1*%
X143725000Y-72000000D03*
X145275000Y-72000000D03*
%TD*%
M02*
